<?xml version="1.0" encoding="UTF-8" standalone="no"?>
<!DOCTYPE svg PUBLIC "-//W3C//DTD SVG 1.1//EN"
 "http://www.w3.org/Graphics/SVG/1.1/DTD/svg11.dtd">
<!-- Generated by graphviz version 15.0.0 (20260523.1842)
 -->
<!-- Title: MetaStructure Pages: 1 -->
<svg width="1009pt" height="1026pt"
 viewBox="0.00 0.00 1009.00 1026.00" xmlns="http://www.w3.org/2000/svg" xmlns:xlink="http://www.w3.org/1999/xlink">
<g id="graph0" class="graph" transform="scale(1 1) rotate(0) translate(49.7 1022.43)">
<title>MetaStructure</title>
<polygon fill="white" stroke="none" points="-49.7,4 -49.7,-1022.43 959.2,-1022.43 959.2,4 -49.7,4"/>
<text xml:space="preserve" text-anchor="middle" x="454.75" y="-1002.08" font-family="Helvetica,sans-Serif" font-size="13.00">Chiralogy: 19 roots, two spines. Node size = territory; tint = functional cluster;</text>
<text xml:space="preserve" text-anchor="middle" x="454.75" y="-988.58" font-family="Helvetica,sans-Serif" font-size="13.00">blue = self&#45;description (chiasm) spine, orange = application (register) spine; the crossing = roots bridged by both;</text>
<text xml:space="preserve" text-anchor="middle" x="454.75" y="-975.08" font-family="Helvetica,sans-Serif" font-size="13.00">diamond = contains (nesting); dashed = isolate, reached by neither spine.</text>
<g id="clust1" class="cluster">
<title>cluster_iso</title>
<path fill="white" stroke="#aaaaaa" stroke-dasharray="5,2" d="M759.81,-748.55C759.81,-748.55 943.2,-748.55 943.2,-748.55 949.2,-748.55 955.2,-754.55 955.2,-760.55 955.2,-760.55 955.2,-957.93 955.2,-957.93 955.2,-963.93 949.2,-969.93 943.2,-969.93 943.2,-969.93 759.81,-969.93 759.81,-969.93 753.81,-969.93 747.81,-963.93 747.81,-957.93 747.81,-957.93 747.81,-760.55 747.81,-760.55 747.81,-754.55 753.81,-748.55 759.81,-748.55"/>
<text xml:space="preserve" text-anchor="middle" x="851.5" y="-955.48" font-family="Helvetica,sans-Serif" font-size="11.00" fill="#777777">isolates: reached by neither spine</text>
</g>
<!-- SELFDESC -->
<g id="node1" class="node">
<title>SELFDESC</title>
<path fill="#2266cc" stroke="black" stroke-width="0" d="M239.13,-650.68C239.13,-650.68 166.13,-650.68 166.13,-650.68 160.13,-650.68 154.13,-644.68 154.13,-638.68 154.13,-638.68 154.13,-626.68 154.13,-626.68 154.13,-620.68 160.13,-614.68 166.13,-614.68 166.13,-614.68 239.13,-614.68 239.13,-614.68 245.13,-614.68 251.13,-620.68 251.13,-626.68 251.13,-626.68 251.13,-638.68 251.13,-638.68 251.13,-644.68 245.13,-650.68 239.13,-650.68"/>
<text xml:space="preserve" text-anchor="middle" x="202.63" y="-634.03" font-family="Helvetica,sans-Serif" font-size="12.00" fill="white">self&#45;description</text>
<text xml:space="preserve" text-anchor="middle" x="202.63" y="-621.28" font-family="Helvetica,sans-Serif" font-size="12.00" fill="white">spine (chiasm)</text>
</g>
<!-- APPLIC -->
<g id="node2" class="node">
<title>APPLIC</title>
<path fill="#dd7711" stroke="black" stroke-width="0" d="M512.4,-327.86C512.4,-327.86 440.9,-327.86 440.9,-327.86 434.9,-327.86 428.9,-321.86 428.9,-315.86 428.9,-315.86 428.9,-303.86 428.9,-303.86 428.9,-297.86 434.9,-291.86 440.9,-291.86 440.9,-291.86 512.4,-291.86 512.4,-291.86 518.4,-291.86 524.4,-297.86 524.4,-303.86 524.4,-303.86 524.4,-315.86 524.4,-315.86 524.4,-321.86 518.4,-327.86 512.4,-327.86"/>
<text xml:space="preserve" text-anchor="middle" x="476.65" y="-311.21" font-family="Helvetica,sans-Serif" font-size="12.00" fill="white">application</text>
<text xml:space="preserve" text-anchor="middle" x="476.65" y="-298.46" font-family="Helvetica,sans-Serif" font-size="12.00" fill="white">spine (register)</text>
</g>
<!-- n_fixedPoint_of_surjection -->
<g id="node3" class="node">
<title>n_fixedPoint_of_surjection</title>
<ellipse fill="#e8edf4" stroke="#33383f" cx="226.04" cy="-417.43" rx="67.28" ry="67.28"/>
<text xml:space="preserve" text-anchor="middle" x="226.04" y="-412.98" font-family="Helvetica,sans-Serif" font-size="11.00" fill="#222222">69</text>
<text xml:space="preserve" text-anchor="middle" x="101.75" y="-351.69" font-family="Helvetica,sans-Serif" font-size="11.00" fill="#222222">fixedPoint_of_surjection</text>
</g>
<!-- n_fixedPoint_of_surjection&#45;&gt;SELFDESC -->
<g id="edge1" class="edge">
<title>n_fixedPoint_of_surjection&#45;&gt;SELFDESC</title>
<path fill="none" stroke="#2266cc" stroke-width="1.6" d="M218.73,-484.65C213.79,-530.05 207.64,-586.66 204.56,-614.91"/>
</g>
<!-- n_fixedPoint_of_surjection&#45;&gt;APPLIC -->
<g id="edge8" class="edge">
<title>n_fixedPoint_of_surjection&#45;&gt;APPLIC</title>
<path fill="none" stroke="#dd7711" stroke-width="1.6" d="M288.31,-390.7C333.97,-371.1 394.74,-345.02 434.74,-327.85"/>
</g>
<!-- n_optCycle -->
<g id="node5" class="node">
<title>n_optCycle</title>
<ellipse fill="#e8edf4" stroke="#33383f" cx="353.51" cy="-442.02" rx="40.07" ry="40.07"/>
<text xml:space="preserve" text-anchor="middle" x="353.51" y="-437.57" font-family="Helvetica,sans-Serif" font-size="11.00" fill="#222222">33</text>
<text xml:space="preserve" text-anchor="middle" x="334.45" y="-483.63" font-family="Helvetica,sans-Serif" font-size="11.00" fill="#222222">optCycle</text>
</g>
<!-- n_fixedPoint_of_surjection&#45;&gt;n_optCycle -->
<g id="edge18" class="edge">
<title>n_fixedPoint_of_surjection&#45;&gt;n_optCycle</title>
<path fill="none" stroke="#556070" stroke-width="1.3" d="M306.41,-432.93C308.98,-433.43 311.52,-433.91 313.99,-434.39"/>
<polygon fill="#556070" stroke="#556070" stroke-width="1.3" points="306.5,-432.95 299.19,-436.02 293.54,-430.45 300.85,-427.38 306.5,-432.95"/>
<text xml:space="preserve" text-anchor="middle" x="313.78" y="-425.34" font-family="Helvetica,sans-Serif" font-size="8.00" fill="#556070">contains</text>
</g>
<!-- n_Obj -->
<g id="node4" class="node">
<title>n_Obj</title>
<ellipse fill="#e9f2e9" stroke="#33383f" cx="41.58" cy="-730.89" rx="41.58" ry="41.58"/>
<text xml:space="preserve" text-anchor="middle" x="41.58" y="-726.44" font-family="Helvetica,sans-Serif" font-size="11.00" fill="#222222">35</text>
<text xml:space="preserve" text-anchor="middle" x="-8.25" y="-774.02" font-family="Helvetica,sans-Serif" font-size="11.00" fill="#222222">Obj</text>
</g>
<!-- n_Obj&#45;&gt;SELFDESC -->
<g id="edge2" class="edge">
<title>n_Obj&#45;&gt;SELFDESC</title>
<path fill="none" stroke="#2266cc" stroke-width="1.6" d="M77.32,-709.09C106.14,-691.52 146.19,-667.1 173.18,-650.64"/>
</g>
<!-- n_Rep -->
<g id="node18" class="node">
<title>n_Rep</title>
<ellipse fill="#e9f2e9" stroke="#33383f" cx="136.06" cy="-829.82" rx="24.19" ry="24.19"/>
<text xml:space="preserve" text-anchor="middle" x="136.06" y="-825.37" font-family="Helvetica,sans-Serif" font-size="11.00" fill="#222222">12</text>
<text xml:space="preserve" text-anchor="middle" x="101.74" y="-855.56" font-family="Helvetica,sans-Serif" font-size="11.00" fill="#222222">Rep</text>
</g>
<!-- n_Obj&#45;&gt;n_Rep -->
<g id="edge19" class="edge">
<title>n_Obj&#45;&gt;n_Rep</title>
<path fill="none" stroke="#556070" stroke-width="1.3" d="M80.5,-771.64C93.98,-785.76 108.41,-800.86 119.18,-812.14"/>
<polygon fill="#556070" stroke="#556070" stroke-width="1.3" points="80.37,-771.5 72.63,-769.77 71.25,-761.96 78.99,-763.69 80.37,-771.5"/>
<text xml:space="preserve" text-anchor="middle" x="80.24" y="-788.09" font-family="Helvetica,sans-Serif" font-size="8.00" fill="#556070">contains</text>
</g>
<!-- n_optCycle&#45;&gt;SELFDESC -->
<g id="edge3" class="edge">
<title>n_optCycle&#45;&gt;SELFDESC</title>
<path fill="none" stroke="#2266cc" stroke-width="1.6" d="M328.6,-473.5C296.63,-513.9 242.24,-582.63 216.69,-614.92"/>
</g>
<!-- n_optCycle&#45;&gt;APPLIC -->
<g id="edge9" class="edge">
<title>n_optCycle&#45;&gt;APPLIC</title>
<path fill="none" stroke="#dd7711" stroke-width="1.6" d="M381.15,-412.36C405.4,-386.33 439.86,-349.34 460.08,-327.65"/>
</g>
<!-- n_imprecise -->
<g id="node6" class="node">
<title>n_imprecise</title>
<ellipse fill="#f5eee6" stroke="#33383f" cx="463.37" cy="-608.37" rx="37.04" ry="37.04"/>
<text xml:space="preserve" text-anchor="middle" x="463.37" y="-603.92" font-family="Helvetica,sans-Serif" font-size="11.00" fill="#222222">29</text>
<text xml:space="preserve" text-anchor="middle" x="403.45" y="-646.97" font-family="Helvetica,sans-Serif" font-size="11.00" fill="#222222">imprecise</text>
</g>
<!-- n_imprecise&#45;&gt;SELFDESC -->
<g id="edge4" class="edge">
<title>n_imprecise&#45;&gt;SELFDESC</title>
<path fill="none" stroke="#2266cc" stroke-width="1.6" d="M426.01,-611.86C379.96,-616.15 301.62,-623.45 251.01,-628.17"/>
</g>
<!-- n_imprecise&#45;&gt;APPLIC -->
<g id="edge10" class="edge">
<title>n_imprecise&#45;&gt;APPLIC</title>
<path fill="none" stroke="#dd7711" stroke-width="1.6" d="M465.04,-570.87C467.92,-506.04 473.73,-375.4 475.85,-327.76"/>
</g>
<!-- n_CataphaticConformant -->
<g id="node7" class="node">
<title>n_CataphaticConformant</title>
<ellipse fill="#f5eee6" stroke="#33383f" cx="507.56" cy="-34.02" rx="34.02" ry="34.02"/>
<text xml:space="preserve" text-anchor="middle" x="507.56" y="-29.57" font-family="Helvetica,sans-Serif" font-size="11.00" fill="#222222">25</text>
<text xml:space="preserve" text-anchor="middle" x="419.16" y="-69.59" font-family="Helvetica,sans-Serif" font-size="11.00" fill="#222222">CataphaticConformant</text>
</g>
<!-- n_CataphaticConformant&#45;&gt;APPLIC -->
<g id="edge11" class="edge">
<title>n_CataphaticConformant&#45;&gt;APPLIC</title>
<path fill="none" stroke="#dd7711" stroke-width="1.6" d="M503.74,-68.12C497.12,-127.22 483.73,-246.68 478.66,-291.94"/>
</g>
<!-- n_LevelObj -->
<g id="node8" class="node">
<title>n_LevelObj</title>
<ellipse fill="#e9f2e9" stroke="#888888" stroke-width="2.2" stroke-dasharray="5,2" cx="834.49" cy="-811.25" rx="32.51" ry="32.51"/>
<text xml:space="preserve" text-anchor="middle" x="834.49" y="-806.8" font-family="Helvetica,sans-Serif" font-size="11.00" fill="#222222">23</text>
<text xml:space="preserve" text-anchor="middle" x="780.98" y="-845.31" font-family="Helvetica,sans-Serif" font-size="11.00" fill="#222222">LevelObj</text>
</g>
<!-- n_assembleClassify -->
<g id="node9" class="node">
<title>n_assembleClassify</title>
<ellipse fill="#e8edf4" stroke="#33383f" cx="619.92" cy="-122.21" rx="32.51" ry="32.51"/>
<text xml:space="preserve" text-anchor="middle" x="619.92" y="-117.76" font-family="Helvetica,sans-Serif" font-size="11.00" fill="#222222">23</text>
<text xml:space="preserve" text-anchor="middle" x="545.79" y="-156.27" font-family="Helvetica,sans-Serif" font-size="11.00" fill="#222222">assembleClassify</text>
</g>
<!-- n_assembleClassify&#45;&gt;APPLIC -->
<g id="edge12" class="edge">
<title>n_assembleClassify&#45;&gt;APPLIC</title>
<path fill="none" stroke="#dd7711" stroke-width="1.6" d="M600,-148.3C570.47,-186.97 515.85,-258.51 490.39,-291.87"/>
</g>
<!-- n_totalization -->
<g id="node10" class="node">
<title>n_totalization</title>
<ellipse fill="#f5eee6" stroke="#33383f" cx="37.05" cy="-510.84" rx="31.75" ry="31.75"/>
<text xml:space="preserve" text-anchor="middle" x="37.05" y="-506.39" font-family="Helvetica,sans-Serif" font-size="11.00" fill="#222222">22</text>
<text xml:space="preserve" text-anchor="middle" x="-20.2" y="-544.15" font-family="Helvetica,sans-Serif" font-size="11.00" fill="#222222">totalization</text>
</g>
<!-- n_totalization&#45;&gt;SELFDESC -->
<g id="edge5" class="edge">
<title>n_totalization&#45;&gt;SELFDESC</title>
<path fill="none" stroke="#2266cc" stroke-width="1.6" d="M62.92,-529.88C94.48,-553.11 147.44,-592.07 178.29,-614.77"/>
</g>
<!-- n_closeable -->
<g id="node11" class="node">
<title>n_closeable</title>
<ellipse fill="#e8edf4" stroke="#33383f" cx="818.53" cy="-257.53" rx="31" ry="31"/>
<text xml:space="preserve" text-anchor="middle" x="818.53" y="-253.08" font-family="Helvetica,sans-Serif" font-size="11.00" fill="#222222">21</text>
<text xml:space="preserve" text-anchor="middle" x="765.03" y="-290.07" font-family="Helvetica,sans-Serif" font-size="11.00" fill="#222222">closeable</text>
</g>
<!-- n_closeable&#45;&gt;APPLIC -->
<g id="edge13" class="edge">
<title>n_closeable&#45;&gt;APPLIC</title>
<path fill="none" stroke="#dd7711" stroke-width="1.6" d="M787.59,-262.26C727.68,-271.44 595.48,-291.67 524.28,-302.57"/>
</g>
<!-- n_AbsenceStructure -->
<g id="node12" class="node">
<title>n_AbsenceStructure</title>
<ellipse fill="#e8edf4" stroke="#33383f" cx="401.04" cy="-190.19" rx="30.24" ry="30.24"/>
<text xml:space="preserve" text-anchor="middle" x="401.04" y="-185.74" font-family="Helvetica,sans-Serif" font-size="11.00" fill="#222222">20</text>
<text xml:space="preserve" text-anchor="middle" x="327.67" y="-221.98" font-family="Helvetica,sans-Serif" font-size="11.00" fill="#222222">AbsenceStructure</text>
</g>
<!-- n_AbsenceStructure&#45;&gt;APPLIC -->
<g id="edge14" class="edge">
<title>n_AbsenceStructure&#45;&gt;APPLIC</title>
<path fill="none" stroke="#dd7711" stroke-width="1.6" d="M417.45,-216.15C431.95,-239.11 452.73,-272 465.42,-292.08"/>
</g>
<!-- n_NonDegenerate -->
<g id="node13" class="node">
<title>n_NonDegenerate</title>
<ellipse fill="#e8edf4" stroke="#33383f" cx="236.97" cy="-206.15" rx="29.48" ry="29.48"/>
<text xml:space="preserve" text-anchor="middle" x="236.97" y="-201.7" font-family="Helvetica,sans-Serif" font-size="11.00" fill="#222222">19</text>
<text xml:space="preserve" text-anchor="middle" x="168.87" y="-237.18" font-family="Helvetica,sans-Serif" font-size="11.00" fill="#222222">NonDegenerate</text>
</g>
<!-- n_NonDegenerate&#45;&gt;APPLIC -->
<g id="edge15" class="edge">
<title>n_NonDegenerate&#45;&gt;APPLIC</title>
<path fill="none" stroke="#dd7711" stroke-width="1.6" d="M264.47,-218.04C306.27,-236.14 386.12,-270.69 435.06,-291.86"/>
</g>
<!-- n_Member -->
<g id="node14" class="node">
<title>n_Member</title>
<ellipse fill="#f5eee6" stroke="#33383f" cx="711.87" cy="-382.97" rx="27.97" ry="27.97"/>
<text xml:space="preserve" text-anchor="middle" x="711.87" y="-378.52" font-family="Helvetica,sans-Serif" font-size="11.00" fill="#222222">17</text>
<text xml:space="preserve" text-anchor="middle" x="664.03" y="-412.5" font-family="Helvetica,sans-Serif" font-size="11.00" fill="#222222">Member</text>
</g>
<!-- n_Member&#45;&gt;APPLIC -->
<g id="edge16" class="edge">
<title>n_Member&#45;&gt;APPLIC</title>
<path fill="none" stroke="#dd7711" stroke-width="1.6" d="M684.89,-374.59C645.67,-362.4 572.34,-339.6 524,-324.58"/>
</g>
<!-- n_OpLevelObj -->
<g id="node15" class="node">
<title>n_OpLevelObj</title>
<ellipse fill="#e9f2e9" stroke="#888888" stroke-width="2.2" stroke-dasharray="5,2" cx="917.49" cy="-786.25" rx="25.7" ry="25.7"/>
<text xml:space="preserve" text-anchor="middle" x="917.49" y="-781.8" font-family="Helvetica,sans-Serif" font-size="11.00" fill="#222222">14</text>
<text xml:space="preserve" text-anchor="middle" x="863.66" y="-762.1" font-family="Helvetica,sans-Serif" font-size="11.00" fill="#222222">OpLevelObj</text>
</g>
<!-- n_TypeSystem_TypeGround -->
<g id="node16" class="node">
<title>n_TypeSystem_TypeGround</title>
<ellipse fill="#f5eee6" stroke="#33383f" cx="657.38" cy="-576.72" rx="25.7" ry="25.7"/>
<text xml:space="preserve" text-anchor="middle" x="657.38" y="-572.27" font-family="Helvetica,sans-Serif" font-size="11.00" fill="#222222">14</text>
<text xml:space="preserve" text-anchor="middle" x="570.18" y="-603.97" font-family="Helvetica,sans-Serif" font-size="11.00" fill="#222222">TypeSystem.TypeGround</text>
</g>
<!-- n_TypeSystem_TypeGround&#45;&gt;APPLIC -->
<g id="edge17" class="edge">
<title>n_TypeSystem_TypeGround&#45;&gt;APPLIC</title>
<path fill="none" stroke="#dd7711" stroke-width="1.6" d="M642.9,-555.33C608.22,-504.13 520.93,-375.23 488.78,-327.77"/>
</g>
<!-- n_embed -->
<g id="node17" class="node">
<title>n_embed</title>
<ellipse fill="#f5eee6" stroke="#888888" stroke-width="2.2" stroke-dasharray="5,2" cx="917.49" cy="-858.25" rx="25.7" ry="25.7"/>
<text xml:space="preserve" text-anchor="middle" x="917.49" y="-853.8" font-family="Helvetica,sans-Serif" font-size="11.00" fill="#222222">14</text>
<text xml:space="preserve" text-anchor="middle" x="908.29" y="-885.5" font-family="Helvetica,sans-Serif" font-size="11.00" fill="#222222">embed</text>
</g>
<!-- n_Rep&#45;&gt;SELFDESC -->
<g id="edge6" class="edge">
<title>n_Rep&#45;&gt;SELFDESC</title>
<path fill="none" stroke="#2266cc" stroke-width="1.6" d="M143.96,-806.43C157.42,-766.55 184.54,-686.25 196.61,-650.53"/>
</g>
<!-- n_partialization -->
<g id="node19" class="node">
<title>n_partialization</title>
<ellipse fill="#f5eee6" stroke="#33383f" cx="378.74" cy="-786.91" rx="24.19" ry="24.19"/>
<text xml:space="preserve" text-anchor="middle" x="378.74" y="-782.46" font-family="Helvetica,sans-Serif" font-size="11.00" fill="#222222">12</text>
<text xml:space="preserve" text-anchor="middle" x="324.55" y="-812.66" font-family="Helvetica,sans-Serif" font-size="11.00" fill="#222222">partialization</text>
</g>
<!-- n_partialization&#45;&gt;SELFDESC -->
<g id="edge7" class="edge">
<title>n_partialization&#45;&gt;SELFDESC</title>
<path fill="none" stroke="#2266cc" stroke-width="1.6" d="M360.23,-770.7C327.02,-741.62 257.59,-680.82 223.05,-650.57"/>
</g>
<!-- n_agreementLE -->
<g id="node20" class="node">
<title>n_agreementLE</title>
<ellipse fill="#f1eaf2" stroke="#888888" stroke-width="2.2" stroke-dasharray="5,2" cx="848.49" cy="-891.25" rx="22.68" ry="22.68"/>
<text xml:space="preserve" text-anchor="middle" x="848.49" y="-886.8" font-family="Helvetica,sans-Serif" font-size="11.00" fill="#222222">10</text>
<text xml:space="preserve" text-anchor="middle" x="793.19" y="-870.12" font-family="Helvetica,sans-Serif" font-size="11.00" fill="#222222">agreementLE</text>
</g>
<!-- n_mzAppend -->
<g id="node21" class="node">
<title>n_mzAppend</title>
<ellipse fill="#f5eee6" stroke="#888888" stroke-width="2.2" stroke-dasharray="5,2" cx="782.49" cy="-915.25" rx="22.68" ry="22.68"/>
<text xml:space="preserve" text-anchor="middle" x="782.49" y="-910.8" font-family="Helvetica,sans-Serif" font-size="11.00" fill="#222222">10</text>
<text xml:space="preserve" text-anchor="middle" x="733.94" y="-939.48" font-family="Helvetica,sans-Serif" font-size="11.00" fill="#222222">mzAppend</text>
</g>
</g>
</svg>
